<svg xmlns="http://www.w3.org/2000/svg" viewBox="0 0 47 46" width="32" height="32">
  <path
    d="M24.1554 0.0350722C28.147 0.21846 32.4534 -0.37803 36.3731 0.470619C48.3819 3.07025 46.6049 15.592 46.587 24.6523L46.5958 45.9472C41.3711 45.9364 36.1464 45.9536 30.922 45.9999C29.4434 43.2148 24.0444 35.6277 21.9962 32.5907L15.7774 23.1142C15.8737 23.0779 15.9624 23.046 16.043 23.0185C10.7968 21.4462 5.46825 19.4975 0.173907 17.8573L0.194415 0.0331191C8.07258 0.200105 16.248 -0.0934163 24.1554 0.0350722ZM15.7032 45.9609L0.0782041 45.9726C0.0245158 40.9337 -0.00163556 35.8945 7.91436e-05 30.8554C2.63646 29.4133 12.6224 24.3281 15.6944 23.1464L15.7032 45.9609ZM15.7774 23.1142C15.7503 23.1244 15.7227 23.1355 15.6944 23.1464V22.9882L15.7774 23.1142ZM39.7745 7.26066C38.7262 5.91122 37.0328 5.2309 35.3429 5.48038C32.7801 5.85886 30.9964 8.22725 31.3389 10.7968C31.6816 13.3661 34.0235 15.1839 36.5958 14.8769C38.2918 14.6744 39.7479 13.5741 40.4063 11.997C41.0645 10.4198 40.8228 8.61007 39.7745 7.26066Z"
    fill="#FF6B35"
  />
</svg>
